<svg aria-roledescription="timeline" role="graphics-document document" viewBox="0 0 1590 622.2000122070312" style="max-width: 100%;" xmlns="http://www.w3.org/2000/svg" width="1317px" id="graph-div" height="1183px" xmlns:xlink="http://www.w3.org/1999/xlink"><style>@import url("https://cdnjs.cloudflare.com/ajax/libs/font-awesome/6.2.1/css/all.min.css");'</style><style>#graph-div{font-family:"trebuchet ms",verdana,arial,sans-serif;font-size:16px;fill:#ccc;}#graph-div .error-icon{fill:#a44141;}#graph-div .error-text{fill:#ddd;stroke:#ddd;}#graph-div .edge-thickness-normal{stroke-width:2px;}#graph-div .edge-thickness-thick{stroke-width:3.5px;}#graph-div .edge-pattern-solid{stroke-dasharray:0;}#graph-div .edge-pattern-dashed{stroke-dasharray:3;}#graph-div .edge-pattern-dotted{stroke-dasharray:2;}#graph-div .marker{fill:lightgrey;stroke:lightgrey;}#graph-div .marker.cross{stroke:lightgrey;}#graph-div svg{font-family:"trebuchet ms",verdana,arial,sans-serif;font-size:16px;}#graph-div .edge{stroke-width:3;}#graph-div .section--1 rect,#graph-div .section--1 path,#graph-div .section--1 circle,#graph-div .section--1 path{fill:#1f2020;}#graph-div .section--1 text{fill:lightgrey;}#graph-div .node-icon--1{font-size:40px;color:lightgrey;}#graph-div .section-edge--1{stroke:#1f2020;}#graph-div .edge-depth--1{stroke-width:17;}#graph-div .section--1 line{stroke:#e0dfdf;stroke-width:3;}#graph-div .lineWrapper line{stroke:lightgrey;}#graph-div .disabled,#graph-div .disabled circle,#graph-div .disabled text{fill:lightgray;}#graph-div .disabled text{fill:#efefef;}#graph-div .section-0 rect,#graph-div .section-0 path,#graph-div .section-0 circle,#graph-div .section-0 path{fill:#0b0000;}#graph-div .section-0 text{fill:lightgrey;}#graph-div .node-icon-0{font-size:40px;color:lightgrey;}#graph-div .section-edge-0{stroke:#0b0000;}#graph-div .edge-depth-0{stroke-width:14;}#graph-div .section-0 line{stroke:#f4ffff;stroke-width:3;}#graph-div .lineWrapper line{stroke:lightgrey;}#graph-div .disabled,#graph-div .disabled circle,#graph-div .disabled text{fill:lightgray;}#graph-div .disabled text{fill:#efefef;}#graph-div .section-1 rect,#graph-div .section-1 path,#graph-div .section-1 circle,#graph-div .section-1 path{fill:#4d1037;}#graph-div .section-1 text{fill:lightgrey;}#graph-div .node-icon-1{font-size:40px;color:lightgrey;}#graph-div .section-edge-1{stroke:#4d1037;}#graph-div .edge-depth-1{stroke-width:11;}#graph-div .section-1 line{stroke:#b2efc8;stroke-width:3;}#graph-div .lineWrapper line{stroke:lightgrey;}#graph-div .disabled,#graph-div .disabled circle,#graph-div .disabled text{fill:lightgray;}#graph-div .disabled text{fill:#efefef;}#graph-div .section-2 rect,#graph-div .section-2 path,#graph-div .section-2 circle,#graph-div .section-2 path{fill:#3f5258;}#graph-div .section-2 text{fill:lightgrey;}#graph-div .node-icon-2{font-size:40px;color:lightgrey;}#graph-div .section-edge-2{stroke:#3f5258;}#graph-div .edge-depth-2{stroke-width:8;}#graph-div .section-2 line{stroke:#c0ada7;stroke-width:3;}#graph-div .lineWrapper line{stroke:lightgrey;}#graph-div .disabled,#graph-div .disabled circle,#graph-div .disabled text{fill:lightgray;}#graph-div .disabled text{fill:#efefef;}#graph-div .section-3 rect,#graph-div .section-3 path,#graph-div .section-3 circle,#graph-div .section-3 path{fill:#4f2f1b;}#graph-div .section-3 text{fill:lightgrey;}#graph-div .node-icon-3{font-size:40px;color:lightgrey;}#graph-div .section-edge-3{stroke:#4f2f1b;}#graph-div .edge-depth-3{stroke-width:5;}#graph-div .section-3 line{stroke:#b0d0e4;stroke-width:3;}#graph-div .lineWrapper line{stroke:lightgrey;}#graph-div .disabled,#graph-div .disabled circle,#graph-div .disabled text{fill:lightgray;}#graph-div .disabled text{fill:#efefef;}#graph-div .section-4 rect,#graph-div .section-4 path,#graph-div .section-4 circle,#graph-div .section-4 path{fill:#6e0a0a;}#graph-div .section-4 text{fill:lightgrey;}#graph-div .node-icon-4{font-size:40px;color:lightgrey;}#graph-div .section-edge-4{stroke:#6e0a0a;}#graph-div .edge-depth-4{stroke-width:2;}#graph-div .section-4 line{stroke:#91f5f5;stroke-width:3;}#graph-div .lineWrapper line{stroke:lightgrey;}#graph-div .disabled,#graph-div .disabled circle,#graph-div .disabled text{fill:lightgray;}#graph-div .disabled text{fill:#efefef;}#graph-div .section-5 rect,#graph-div .section-5 path,#graph-div .section-5 circle,#graph-div .section-5 path{fill:#3b0048;}#graph-div .section-5 text{fill:lightgrey;}#graph-div .node-icon-5{font-size:40px;color:lightgrey;}#graph-div .section-edge-5{stroke:#3b0048;}#graph-div .edge-depth-5{stroke-width:-1;}#graph-div .section-5 line{stroke:#c4ffb7;stroke-width:3;}#graph-div .lineWrapper line{stroke:lightgrey;}#graph-div .disabled,#graph-div .disabled circle,#graph-div .disabled text{fill:lightgray;}#graph-div .disabled text{fill:#efefef;}#graph-div .section-6 rect,#graph-div .section-6 path,#graph-div .section-6 circle,#graph-div .section-6 path{fill:#995a01;}#graph-div .section-6 text{fill:lightgrey;}#graph-div .node-icon-6{font-size:40px;color:lightgrey;}#graph-div .section-edge-6{stroke:#995a01;}#graph-div .edge-depth-6{stroke-width:-4;}#graph-div .section-6 line{stroke:#66a5fe;stroke-width:3;}#graph-div .lineWrapper line{stroke:lightgrey;}#graph-div .disabled,#graph-div .disabled circle,#graph-div .disabled text{fill:lightgray;}#graph-div .disabled text{fill:#efefef;}#graph-div .section-7 rect,#graph-div .section-7 path,#graph-div .section-7 circle,#graph-div .section-7 path{fill:#154706;}#graph-div .section-7 text{fill:lightgrey;}#graph-div .node-icon-7{font-size:40px;color:lightgrey;}#graph-div .section-edge-7{stroke:#154706;}#graph-div .edge-depth-7{stroke-width:-7;}#graph-div .section-7 line{stroke:#eab8f9;stroke-width:3;}#graph-div .lineWrapper line{stroke:lightgrey;}#graph-div .disabled,#graph-div .disabled circle,#graph-div .disabled text{fill:lightgray;}#graph-div .disabled text{fill:#efefef;}#graph-div .section-8 rect,#graph-div .section-8 path,#graph-div .section-8 circle,#graph-div .section-8 path{fill:#161722;}#graph-div .section-8 text{fill:lightgrey;}#graph-div .node-icon-8{font-size:40px;color:lightgrey;}#graph-div .section-edge-8{stroke:#161722;}#graph-div .edge-depth-8{stroke-width:-10;}#graph-div .section-8 line{stroke:#e9e8dd;stroke-width:3;}#graph-div .lineWrapper line{stroke:lightgrey;}#graph-div .disabled,#graph-div .disabled circle,#graph-div .disabled text{fill:lightgray;}#graph-div .disabled text{fill:#efefef;}#graph-div .section-9 rect,#graph-div .section-9 path,#graph-div .section-9 circle,#graph-div .section-9 path{fill:#00296f;}#graph-div .section-9 text{fill:lightgrey;}#graph-div .node-icon-9{font-size:40px;color:lightgrey;}#graph-div .section-edge-9{stroke:#00296f;}#graph-div .edge-depth-9{stroke-width:-13;}#graph-div .section-9 line{stroke:#ffd690;stroke-width:3;}#graph-div .lineWrapper line{stroke:lightgrey;}#graph-div .disabled,#graph-div .disabled circle,#graph-div .disabled text{fill:lightgray;}#graph-div .disabled text{fill:#efefef;}#graph-div .section-10 rect,#graph-div .section-10 path,#graph-div .section-10 circle,#graph-div .section-10 path{fill:#01629c;}#graph-div .section-10 text{fill:lightgrey;}#graph-div .node-icon-10{font-size:40px;color:lightgrey;}#graph-div .section-edge-10{stroke:#01629c;}#graph-div .edge-depth-10{stroke-width:-16;}#graph-div .section-10 line{stroke:#fe9d63;stroke-width:3;}#graph-div .lineWrapper line{stroke:lightgrey;}#graph-div .disabled,#graph-div .disabled circle,#graph-div .disabled text{fill:lightgray;}#graph-div .disabled text{fill:#efefef;}#graph-div .section-root rect,#graph-div .section-root path,#graph-div .section-root circle{fill:hsl(180, 1.5873015873%, 48.3529411765%);}#graph-div .section-root text{fill:undefined;}#graph-div .icon-container{height:100%;display:flex;justify-content:center;align-items:center;}#graph-div .edge{fill:none;}#graph-div .eventWrapper{filter:brightness(120%);}#graph-div :root{--mermaid-font-family:"trebuchet ms",verdana,arial,sans-serif;}</style><g></g><g></g><defs><marker orient="auto" markerHeight="4" markerWidth="6" refY="2" refX="5" id="arrowhead"><path d="M 0,0 V 4 L6,2 Z"></path></marker></defs><g transform="translate(100, 50)" class="taskWrapper"><g class="timeline-node section--1"><g><path d="M0 62.8 v-57.8 q0,-5 5,-5 h180 q5,0 5,5 v62.8 H0 Z" class="node-bkg node-undefined" id="node-undefined"></path><line y2="67.8" x2="190" y1="67.8" x1="0" class="node-line--1"></line></g><g transform="translate(95, 10)"><text text-anchor="middle" dominant-baseline="middle" alignment-baseline="middle" dy="1em"><tspan dy="1em" x="0">2019</tspan></text></g></g></g><g class="lineWrapper"><line stroke-dasharray="5,5" marker-end="url(#arrowhead)" stroke="black" stroke-width="2" y2="572.2000045776367" x2="195" y1="117.8" x1="195"></line></g><g transform="translate(100, 250)" class="eventWrapper"><g class="timeline-node section--1"><g><path d="M0 78.00000076293945 v-73.00000076293945 q0,-5 5,-5 h180 q5,0 5,5 v78.00000076293945 H0 Z" class="node-bkg node-undefined" id="node-undefined"></path><line y2="83.00000076293945" x2="190" y1="83.00000076293945" x1="0" class="node-line--1"></line></g><g transform="translate(95, 10)"><text text-anchor="middle" dominant-baseline="middle" alignment-baseline="middle" dy="1em"><tspan dy="1em" x="0">Beginning   to</tspan><tspan dy="1.1em" x="0">program   with</tspan><tspan dy="1.1em" x="0">Arduino</tspan></text></g></g></g><g transform="translate(300, 50)" class="taskWrapper"><g class="timeline-node section-0"><g><path d="M0 62.8 v-57.8 q0,-5 5,-5 h180 q5,0 5,5 v62.8 H0 Z" class="node-bkg node-undefined" id="node-undefined"></path><line y2="67.8" x2="190" y1="67.8" x1="0" class="node-line-0"></line></g><g transform="translate(95, 10)"><text text-anchor="middle" dominant-baseline="middle" alignment-baseline="middle" dy="1em"><tspan dy="1em" x="0">2020</tspan></text></g></g></g><g class="lineWrapper"><line stroke-dasharray="5,5" marker-end="url(#arrowhead)" stroke="black" stroke-width="2" y2="572.2000045776367" x2="395" y1="117.8" x1="395"></line></g><g transform="translate(300, 250)" class="eventWrapper"><g class="timeline-node section-0"><g><path d="M0 78.00000076293945 v-73.00000076293945 q0,-5 5,-5 h180 q5,0 5,5 v78.00000076293945 H0 Z" class="node-bkg node-undefined" id="node-undefined"></path><line y2="83.00000076293945" x2="190" y1="83.00000076293945" x1="0" class="node-line-0"></line></g><g transform="translate(95, 10)"><text text-anchor="middle" dominant-baseline="middle" alignment-baseline="middle" dy="1em"><tspan dy="1em" x="0">Building   the   first</tspan><tspan dy="1.1em" x="0">robot   based   on</tspan><tspan dy="1.1em" x="0">Arduino</tspan></text></g></g></g><g transform="translate(300, 343.00000076293946)" class="eventWrapper"><g class="timeline-node section-0"><g><path d="M0 95.60000305175781 v-90.60000305175781 q0,-5 5,-5 h180 q5,0 5,5 v95.60000305175781 H0 Z" class="node-bkg node-undefined" id="node-undefined"></path><line y2="100.60000305175781" x2="190" y1="100.60000305175781" x1="0" class="node-line-0"></line></g><g transform="translate(95, 10)"><text text-anchor="middle" dominant-baseline="middle" alignment-baseline="middle" dy="1em"><tspan dy="1em" x="0">received   first</tspan><tspan dy="1.1em" x="0">sponsoring   of   IOT</tspan><tspan dy="1.1em" x="0">and   other   sruff   from</tspan><tspan dy="1.1em" x="0">SIEMENS</tspan></text></g></g></g><g transform="translate(500, 50)" class="taskWrapper"><g class="timeline-node section-1"><g><path d="M0 62.8 v-57.8 q0,-5 5,-5 h180 q5,0 5,5 v62.8 H0 Z" class="node-bkg node-undefined" id="node-undefined"></path><line y2="67.8" x2="190" y1="67.8" x1="0" class="node-line-1"></line></g><g transform="translate(95, 10)"><text text-anchor="middle" dominant-baseline="middle" alignment-baseline="middle" dy="1em"><tspan dy="1em" x="0">beginning   2021</tspan></text></g></g></g><g class="lineWrapper"><line stroke-dasharray="5,5" marker-end="url(#arrowhead)" stroke="black" stroke-width="2" y2="572.2000045776367" x2="595" y1="117.8" x1="595"></line></g><g transform="translate(500, 250)" class="eventWrapper"><g class="timeline-node section-1"><g><path d="M0 95.60000305175781 v-90.60000305175781 q0,-5 5,-5 h180 q5,0 5,5 v95.60000305175781 H0 Z" class="node-bkg node-undefined" id="node-undefined"></path><line y2="100.60000305175781" x2="190" y1="100.60000305175781" x1="0" class="node-line-1"></line></g><g transform="translate(95, 10)"><text text-anchor="middle" dominant-baseline="middle" alignment-baseline="middle" dy="1em"><tspan dy="1em" x="0">Building   a</tspan><tspan dy="1.1em" x="0">professional   robot</tspan><tspan dy="1.1em" x="0">with   help   of   Prof.</tspan><tspan dy="1.1em" x="0">May</tspan></text></g></g></g><g transform="translate(500, 360.6000030517578)" class="eventWrapper"><g class="timeline-node section-1"><g><path d="M0 60.40000228881836 v-55.40000228881836 q0,-5 5,-5 h180 q5,0 5,5 v60.40000228881836 H0 Z" class="node-bkg node-undefined" id="node-undefined"></path><line y2="65.40000228881836" x2="190" y1="65.40000228881836" x1="0" class="node-line-1"></line></g><g transform="translate(95, 10)"><text text-anchor="middle" dominant-baseline="middle" alignment-baseline="middle" dy="1em"><tspan dy="1em" x="0">Started   using   3d</tspan><tspan dy="1.1em" x="0">printed   parts</tspan></text></g></g></g><g transform="translate(700, 50)" class="taskWrapper"><g class="timeline-node section-2"><g><path d="M0 62.8 v-57.8 q0,-5 5,-5 h180 q5,0 5,5 v62.8 H0 Z" class="node-bkg node-undefined" id="node-undefined"></path><line y2="67.8" x2="190" y1="67.8" x1="0" class="node-line-2"></line></g><g transform="translate(95, 10)"><text text-anchor="middle" dominant-baseline="middle" alignment-baseline="middle" dy="1em"><tspan dy="1em" x="0">mid   2021</tspan></text></g></g></g><g class="lineWrapper"><line stroke-dasharray="5,5" marker-end="url(#arrowhead)" stroke="black" stroke-width="2" y2="572.2000045776367" x2="795" y1="117.8" x1="795"></line></g><g transform="translate(700, 250)" class="eventWrapper"><g class="timeline-node section-2"><g><path d="M0 78.00000076293945 v-73.00000076293945 q0,-5 5,-5 h180 q5,0 5,5 v78.00000076293945 H0 Z" class="node-bkg node-undefined" id="node-undefined"></path><line y2="83.00000076293945" x2="190" y1="83.00000076293945" x1="0" class="node-line-2"></line></g><g transform="translate(95, 10)"><text text-anchor="middle" dominant-baseline="middle" alignment-baseline="middle" dy="1em"><tspan dy="1em" x="0">Further</tspan><tspan dy="1.1em" x="0">developmnent   of   the</tspan><tspan dy="1.1em" x="0">robot</tspan></text></g></g></g><g transform="translate(700, 343.00000076293946)" class="eventWrapper"><g class="timeline-node section-2"><g><path d="M0 95.60000305175781 v-90.60000305175781 q0,-5 5,-5 h180 q5,0 5,5 v95.60000305175781 H0 Z" class="node-bkg node-undefined" id="node-undefined"></path><line y2="100.60000305175781" x2="190" y1="100.60000305175781" x1="0" class="node-line-2"></line></g><g transform="translate(95, 10)"><text text-anchor="middle" dominant-baseline="middle" alignment-baseline="middle" dy="1em"><tspan dy="1em" x="0">Meeting   with   Prof.</tspan><tspan dy="1.1em" x="0">May   to   learn   more</tspan><tspan dy="1.1em" x="0">about   robot</tspan><tspan dy="1.1em" x="0">development</tspan></text></g></g></g><g transform="translate(700, 453.6000038146973)" class="eventWrapper"><g class="timeline-node section-2"><g><path d="M0 60.40000228881836 v-55.40000228881836 q0,-5 5,-5 h180 q5,0 5,5 v60.40000228881836 H0 Z" class="node-bkg node-undefined" id="node-undefined"></path><line y2="65.40000228881836" x2="190" y1="65.40000228881836" x1="0" class="node-line-2"></line></g><g transform="translate(95, 10)"><text text-anchor="middle" dominant-baseline="middle" alignment-baseline="middle" dy="1em"><tspan dy="1em" x="0">Started   using   the</tspan><tspan dy="1.1em" x="0">ROS   software   suit</tspan></text></g></g></g><g transform="translate(900, 50)" class="taskWrapper"><g class="timeline-node section-3"><g><path d="M0 62.8 v-57.8 q0,-5 5,-5 h180 q5,0 5,5 v62.8 H0 Z" class="node-bkg node-undefined" id="node-undefined"></path><line y2="67.8" x2="190" y1="67.8" x1="0" class="node-line-3"></line></g><g transform="translate(95, 10)"><text text-anchor="middle" dominant-baseline="middle" alignment-baseline="middle" dy="1em"><tspan dy="1em" x="0">beginning   2022</tspan></text></g></g></g><g class="lineWrapper"><line stroke-dasharray="5,5" marker-end="url(#arrowhead)" stroke="black" stroke-width="2" y2="572.2000045776367" x2="995" y1="117.8" x1="995"></line></g><g transform="translate(900, 250)" class="eventWrapper"><g class="timeline-node section-3"><g><path d="M0 78.00000076293945 v-73.00000076293945 q0,-5 5,-5 h180 q5,0 5,5 v78.00000076293945 H0 Z" class="node-bkg node-undefined" id="node-undefined"></path><line y2="83.00000076293945" x2="190" y1="83.00000076293945" x1="0" class="node-line-3"></line></g><g transform="translate(95, 10)"><text text-anchor="middle" dominant-baseline="middle" alignment-baseline="middle" dy="1em"><tspan dy="1em" x="0">First   visit   in   the</tspan><tspan dy="1.1em" x="0">SIEMENS   facility   in</tspan><tspan dy="1.1em" x="0">Nuremberg</tspan></text></g></g></g><g transform="translate(900, 343.00000076293946)" class="eventWrapper"><g class="timeline-node section-3"><g><path d="M0 78.00000076293945 v-73.00000076293945 q0,-5 5,-5 h180 q5,0 5,5 v78.00000076293945 H0 Z" class="node-bkg node-undefined" id="node-undefined"></path><line y2="83.00000076293945" x2="190" y1="83.00000076293945" x1="0" class="node-line-3"></line></g><g transform="translate(95, 10)"><text text-anchor="middle" dominant-baseline="middle" alignment-baseline="middle" dy="1em"><tspan dy="1em" x="0">Stayed   in   touch   with</tspan><tspan dy="1.1em" x="0">the   other   schools   to</tspan><tspan dy="1.1em" x="0">exchange   ideas</tspan></text></g></g></g><g transform="translate(900, 436.00000152587893)" class="eventWrapper"><g class="timeline-node section-3"><g><path d="M0 95.60000305175781 v-90.60000305175781 q0,-5 5,-5 h180 q5,0 5,5 v95.60000305175781 H0 Z" class="node-bkg node-undefined" id="node-undefined"></path><line y2="100.60000305175781" x2="190" y1="100.60000305175781" x1="0" class="node-line-3"></line></g><g transform="translate(95, 10)"><text text-anchor="middle" dominant-baseline="middle" alignment-baseline="middle" dy="1em"><tspan dy="1em" x="0">A   student   of   Prof.</tspan><tspan dy="1.1em" x="0">May   joined   our   team</tspan><tspan dy="1.1em" x="0">to   help   us   improve</tspan><tspan dy="1.1em" x="0">our   robot   and   code</tspan></text></g></g></g><g transform="translate(1100, 50)" class="taskWrapper"><g class="timeline-node section-4"><g><path d="M0 62.8 v-57.8 q0,-5 5,-5 h180 q5,0 5,5 v62.8 H0 Z" class="node-bkg node-undefined" id="node-undefined"></path><line y2="67.8" x2="190" y1="67.8" x1="0" class="node-line-4"></line></g><g transform="translate(95, 10)"><text text-anchor="middle" dominant-baseline="middle" alignment-baseline="middle" dy="1em"><tspan dy="1em" x="0">mid   2022</tspan></text></g></g></g><g class="lineWrapper"><line stroke-dasharray="5,5" marker-end="url(#arrowhead)" stroke="black" stroke-width="2" y2="572.2000045776367" x2="1195" y1="117.8" x1="1195"></line></g><g transform="translate(1100, 250)" class="eventWrapper"><g class="timeline-node section-4"><g><path d="M0 78.00000076293945 v-73.00000076293945 q0,-5 5,-5 h180 q5,0 5,5 v78.00000076293945 H0 Z" class="node-bkg node-undefined" id="node-undefined"></path><line y2="83.00000076293945" x2="190" y1="83.00000076293945" x1="0" class="node-line-4"></line></g><g transform="translate(95, 10)"><text text-anchor="middle" dominant-baseline="middle" alignment-baseline="middle" dy="1em"><tspan dy="1em" x="0">Second   visit   in   the</tspan><tspan dy="1.1em" x="0">SIEMENS   facility   in</tspan><tspan dy="1.1em" x="0">Amberg</tspan></text></g></g></g><g transform="translate(1100, 343.00000076293946)" class="eventWrapper"><g class="timeline-node section-4"><g><path d="M0 60.40000228881836 v-55.40000228881836 q0,-5 5,-5 h180 q5,0 5,5 v60.40000228881836 H0 Z" class="node-bkg node-undefined" id="node-undefined"></path><line y2="65.40000228881836" x2="190" y1="65.40000228881836" x1="0" class="node-line-4"></line></g><g transform="translate(95, 10)"><text text-anchor="middle" dominant-baseline="middle" alignment-baseline="middle" dy="1em"><tspan dy="1em" x="0">Started   using   a   laser</tspan><tspan dy="1.1em" x="0">cutter</tspan></text></g></g></g><g transform="translate(1300, 50)" class="taskWrapper"><g class="timeline-node section-5"><g><path d="M0 62.8 v-57.8 q0,-5 5,-5 h180 q5,0 5,5 v62.8 H0 Z" class="node-bkg node-undefined" id="node-undefined"></path><line y2="67.8" x2="190" y1="67.8" x1="0" class="node-line-5"></line></g><g transform="translate(95, 10)"><text text-anchor="middle" dominant-baseline="middle" alignment-baseline="middle" dy="1em"><tspan dy="1em" x="0">end   2022</tspan></text></g></g></g><g class="lineWrapper"><line stroke-dasharray="5,5" marker-end="url(#arrowhead)" stroke="black" stroke-width="2" y2="572.2000045776367" x2="1395" y1="117.8" x1="1395"></line></g><g transform="translate(1300, 250)" class="eventWrapper"><g class="timeline-node section-5"><g><path d="M0 78.00000076293945 v-73.00000076293945 q0,-5 5,-5 h180 q5,0 5,5 v78.00000076293945 H0 Z" class="node-bkg node-undefined" id="node-undefined"></path><line y2="83.00000076293945" x2="190" y1="83.00000076293945" x1="0" class="node-line-5"></line></g><g transform="translate(95, 10)"><text text-anchor="middle" dominant-baseline="middle" alignment-baseline="middle" dy="1em"><tspan dy="1em" x="0">Meeting   with   other</tspan><tspan dy="1.1em" x="0">local   schools   to</tspan><tspan dy="1.1em" x="0">exchange   ideas</tspan></text></g></g></g><g transform="translate(1300, 343.00000076293946)" class="eventWrapper"><g class="timeline-node section-5"><g><path d="M0 78.00000076293945 v-73.00000076293945 q0,-5 5,-5 h180 q5,0 5,5 v78.00000076293945 H0 Z" class="node-bkg node-undefined" id="node-undefined"></path><line y2="83.00000076293945" x2="190" y1="83.00000076293945" x1="0" class="node-line-5"></line></g><g transform="translate(95, 10)"><text text-anchor="middle" dominant-baseline="middle" alignment-baseline="middle" dy="1em"><tspan dy="1em" x="0">Learned   more   about</tspan><tspan dy="1.1em" x="0">the   SIEMENS</tspan><tspan dy="1.1em" x="0">software</tspan></text></g></g></g><g class="lineWrapper"><line marker-end="url(#arrowhead)" stroke="black" stroke-width="4" y2="167.8" x2="1540" y1="167.8" x1="50"></line></g></svg>